<svg version="1.1" viewBox="0.0 0.0 1000.0 1000.0" fill="none" stroke="none" stroke-linecap="square" stroke-miterlimit="10" xmlns:xlink="http://www.w3.org/1999/xlink" xmlns="http://www.w3.org/2000/svg"><clipPath id="p.0"><path d="m0 0l1000.0 0l0 1000.0l-1000.0 0l0 -1000.0z" clip-rule="nonzero"/></clipPath><g clip-path="url(#p.0)"><path fill="#000000" fill-opacity="0.0" d="m0 0l1000.0 0l0 1000.0l-1000.0 0z" fill-rule="evenodd"/><path fill="#3c8990" d="m66.04734 145.0139l0 0c0 -20.471184 16.595177 -37.06636 37.06636 -37.06636l793.77277 0c9.830627 0 19.258606 3.9051971 26.2099 10.856483c6.951294 6.951294 10.856506 16.379265 10.856506 26.209877l0 148.26097c0 20.471191 -16.595215 37.066376 -37.066406 37.066376l-793.77277 0c-20.471184 0 -37.06636 -16.595184 -37.06636 -37.066376z" fill-rule="evenodd"/><path stroke="#b39265" stroke-width="16.0" stroke-linejoin="round" stroke-linecap="butt" d="m66.04734 145.0139l0 0c0 -20.471184 16.595177 -37.06636 37.06636 -37.06636l793.77277 0c9.830627 0 19.258606 3.9051971 26.2099 10.856483c6.951294 6.951294 10.856506 16.379265 10.856506 26.209877l0 148.26097c0 20.471191 -16.595215 37.066376 -37.066406 37.066376l-793.77277 0c-20.471184 0 -37.06636 -16.595184 -37.06636 -37.066376z" fill-rule="evenodd"/><path fill="#3c8990" d="m66.04734 425.86942l0 0c0 -20.471191 16.595177 -37.066376 37.06636 -37.066376l793.77277 0c9.830627 0 19.258606 3.9052124 26.2099 10.856476c6.951294 6.951294 10.856506 16.379272 10.856506 26.2099l0 148.26096c0 20.471191 -16.595215 37.066345 -37.066406 37.066345l-793.77277 0c-20.471184 0 -37.06636 -16.595154 -37.06636 -37.066345z" fill-rule="evenodd"/><path stroke="#b39265" stroke-width="16.0" stroke-linejoin="round" stroke-linecap="butt" d="m66.04734 425.86942l0 0c0 -20.471191 16.595177 -37.066376 37.06636 -37.066376l793.77277 0c9.830627 0 19.258606 3.9052124 26.2099 10.856476c6.951294 6.951294 10.856506 16.379272 10.856506 26.2099l0 148.26096c0 20.471191 -16.595215 37.066345 -37.066406 37.066345l-793.77277 0c-20.471184 0 -37.06636 -16.595154 -37.06636 -37.066345z" fill-rule="evenodd"/><path fill="#3c8990" d="m66.04734 706.7249l0 0c0 -20.471191 16.595177 -37.066345 37.06636 -37.066345l793.77277 0c9.830627 0 19.258606 3.9051514 26.2099 10.856445c6.951294 6.951294 10.856506 16.379272 10.856506 26.2099l0 148.26099c0 20.471191 -16.595215 37.066345 -37.066406 37.066345l-793.77277 0c-20.471184 0 -37.06636 -16.595154 -37.06636 -37.066345z" fill-rule="evenodd"/><path stroke="#b39265" stroke-width="16.0" stroke-linejoin="round" stroke-linecap="butt" d="m66.04734 706.7249l0 0c0 -20.471191 16.595177 -37.066345 37.06636 -37.066345l793.77277 0c9.830627 0 19.258606 3.9051514 26.2099 10.856445c6.951294 6.951294 10.856506 16.379272 10.856506 26.2099l0 148.26099c0 20.471191 -16.595215 37.066345 -37.066406 37.066345l-793.77277 0c-20.471184 0 -37.06636 -16.595154 -37.06636 -37.066345z" fill-rule="evenodd"/></g></svg>