<svg viewBox="0 0 1317 936" 
     fill="none" 
     xmlns="http://www.w3.org/2000/svg">
    <path d="M.5 887.5V227c0-18 18-39 39-39h120c28.5 0 58 8 87.5 33.5 5.5-20.5 21-33.5 37.5-33.5H503c17.5-.5 35.5 18.5 38.5 35.5 56.5-52 172-56 232-10.149V69c0-41 42.5-68 71-68L1245 .5c36.5 0 71.5 31 71.5 66.5v818.5c0 22.5-19.5 43.5-40.5 43.5h-64.5c-25 0-41-24-41-46V765c-28.5 36-66 42.5-98-1.5V887c0 18.5-17.5 41.5-38 41.5H965c-22 0-38-23-38-42l-.5-15c-79 96-259.5 83-316.67-30.192C547.694 954.012 379.931 960.429 304 883c0 25-19 46-40 46h-73.5c-21-.5-36.5-19-45-41 1 23-25 41-38 41h-66c-22 0-41-20.5-41-41.5Z"
          fill="#fff">
    </path>
    <path fill-rule="evenodd" 
          clip-rule="evenodd" 
          d="M23 232c0-10 9-20.5 20-22l122.5.5c57 0 102 61.5 102 79v-58c.5-10 9.5-21 21.5-21.5h208c15 0 22.5 10.5 22.5 20l.5 46c68.5-95 214.5-89.5 276.5-15.5V66c.5-17.5 24-43 55.5-43h381c38.5 0 60.5 21.5 60.5 48l1.5 811c0 12.5-5.5 25-21.5 25H1215c-10.5 0-20.5-10.5-20.5-20l-.5-177.5-56 57c-12.3 8.188-19.2 8.021-31.5 0l-57.5-57v181c0 8.5-8 16-17.5 16H968c-10.5 0-18.5-11.5-18.5-23l-1-90.5c-46 149-276 172.5-339-1.5-56 182.5-339 159-349-60.5-11 22-21.5 32.5-43 45.5l63 98c7.5 13-6 33-20 33H195c-10 0-16-6-19.5-12l-52-83v76c0 8.5-11 19-21.5 19H45.5c-9 0-23-10-22.5-23V232ZM838 73.5l-.5 38h417V78c0-6.5-5.5-14.5-16-14.5H855c-8.5 0-17 4.5-17 10ZM944.5 152H838v189c124.5 90 281.5 99.5 417 6l-.5-194.5H1146V310c0 1.5 0 2-2.5 2h-37c-2.01 0-2.51-1.5-2.5-3.5.01-2 .5-157 .5-157L986 152s.013 157.001 0 158c-.013 1-.513 2-2.5 2h-37c-1.013 0-2.013-.5-2-1V152Zm-107 365 .5-130.5c129.5 79.5 279.5 86 416.5 6v120c0 10-10.5 15.5-21 15.5l-371.5.5c-16-.5-23-8-24.5-11.5ZM1122 638l-75-70.5h150l-75 70.5ZM797 447.5V324l-53.5 25.5c-4.98 1.761-7.836 1.581-13 0-25.5-12.5-8-25.5-60-36.5-89.5-9.5-105 155.5 3 148.5 25.5 1.5 41-24.5 57-37.5 5.846-2.324 8.677-2.391 13-.5l53.5 24ZM522 546l1-44.5c42.5 52.5 88 71.5 171.5 67-46.5 25.5-67 52-85 101.5-19.5-62-63.5-94.5-99-108.5 6.852-4.252 10.5-8 11.5-15.5Zm-29-109.5H368v30h135c-6.542-11.108-8.687-17.686-10-30Zm-124.5-98v-31h134c-5.539 11.719-7.773 18.496-10 31h-124Zm580.5 228V667c-21-50-41-73.5-86-100l86-.5ZM114.5 702v-58.5h36c15 0 31 11.5 31 22.5v13.5c0 12.5-14.5 22.5-29 22.5h-38ZM147 359.5h-32v-60h28c21.5 0 38.5 10 38.5 24v9.5c0 17-11.795 24.653-34.5 26.5ZM268 512V369c-12.483 33.121-23.71 47.295-51.5 64.5L268 512Zm173 144c87 3 94 146.5-2.5 149-97.5-6-82-149 2.5-149ZM123.5 552.5V471l54.5 84.5c-21-2-32-3-54.5-3Zm237 12.5c-50.833 0-153-.5-153-.5 39 21 58 42 66.5 98 13-39 39.5-75 86.5-97.5Zm420 91.001c95.074 3.297 85.5 147.384 1.5 149-97.982 1.884-88-152.001-1.5-149Z" 
          fill="#ff6727">
    </path>
</svg>